<svg xmlns="http://www.w3.org/2000/svg" viewBox="0 0 1000 1000"><path d="M910.2 89c-50.4-50.3-116.7-79-182.1-79-55.2 0-105.9 20.5-143 57.5l-149 150.2c-.5.4-1 .7-1.4 1.2-.2.2-.4.6-.6.8l.1.1-316.5 318.7c-14.6 14.5-25.1 32.5-31 52.2l-72 260.5c-.1.7-4.7 21.2-4.7 31.6C10 942 58.1 990 117.3 990c11.8 0 34.6-5.6 35.4-5.8L412.4 916c19.7-5.8 37.6-16.5 52.2-31.1L932 413.8c85.1-85.1 75.5-227.7-21.8-324.8zM500.4 738.7c-2.5-27.6-10.3-54.7-22-80.5L768 368.7c17.7 55.9 8.6 114.4-30.2 153.3-.2.2-.6.4-.8.6l.4.4-236.6 238.6c0-7.6.3-15.1-.4-22.9zM463 630.3c-11.4-18.8-24.4-36.9-40.5-53-18.7-18.7-40.2-33.4-62.6-45.7l291.9-291.9c22.9 10.2 44.9 24.7 64.3 44 16.6 16.5 29.4 35 39.2 54.2L463 630.3zM331.1 517.2c-28.4-11.4-58.1-17.9-87.8-18.3l235.9-237.7c36.1-35.2 88.7-45.4 140.5-32.5L331.1 517.2zM137.6 924.9c-3.3.8-13.7 3.4-20.8 3.9-25.2-.3-45.6-20.8-45.6-45.9.4-5.1 2.4-14 3.1-17.2l32.2-116.8c35-.9 72.7 12.7 102.3 42.4 30.1 30 44.2 68.4 42.7 103.9l-113.9 29.7zM281.8 887c-.7-41.1-17.5-83.9-51.2-117.5-31.9-31.9-73.7-50.4-115.3-52L145.7 607c2.2-7.3 6.6-14.6 12-20.9 61.4-44 155.9-31 221.5 34.7 69.4 69.4 80.1 171.1 26.7 231.8-3.6 1.9-7.1 3.6-11 4.8L281.8 887zm606.9-516.5l-51.6 52c0-6.9.8-13.6.2-20.6-5.4-59.3-33-116.6-77.9-161.4-49.9-49.9-116-78.6-181.6-78.7l50.7-51.1c25.4-25.3 60.8-39.4 99.6-39.4 49.3 0 99.9 22.3 138.8 61.1 36.5 36.5 58.3 81.8 61.4 127.6 3 42.8-11.1 82-39.6 110.5z"/></svg>