<svg xmlns="http://www.w3.org/2000/svg" viewBox="0 0 480 480"><linearGradient id="a" gradientUnits="userSpaceOnUse" x1="-43.349" y1="558.515" x2="-43.349" y2="620.464" gradientTransform="matrix(8 0 0 -8 586.796 4941)"><stop offset="0" stop-color="#006df0"/><stop offset="1" stop-color="#00e7f0"/></linearGradient><path d="M450.828 458.344l-37.656-37.656V136c0-.168-.088-.312-.096-.48a8.01 8.01 0 00-.432-2.128 7.7 7.7 0 00-.264-.752 8.084 8.084 0 00-1.512-2.248l-.048-.056-45.648-45.648V8a8 8 0 00-8-8h-320a8 8 0 00-8 8v432a8 8 0 008 8h40v24a8 8 0 008 8h320a8 8 0 008-8v-28.688l26.344 26.344 11.312-11.312zM317.172 59.312L385.86 128h-68.688V59.312zM45.172 432V16h304v52.688l-34.336-34.336-.064-.048a7.997 7.997 0 00-2.24-1.504c-.104-.048-.184-.136-.288-.176s-.36-.056-.528-.12a7.679 7.679 0 00-2.04-.4c-.168-.016-.328-.104-.504-.104h-224a8 8 0 00-8 8v392h-32zm352 32h-304V48h208v88a8 8 0 008 8h88v260.688l-49.08-49.08c37.449-43.696 32.384-109.477-11.312-146.926s-109.477-32.384-146.926 11.312-32.384 109.477 11.312 146.926c39.02 33.441 96.594 33.441 135.614 0l60.392 60.392V464zm-128-88c-48.601.002-88.001-39.396-88.003-87.997s39.396-88.001 87.997-88.003c48.601-.002 88.001 39.396 88.003 87.997a88 88 0 01-25.773 62.227A88.103 88.103 0 01269.172 376z" fill="url(#a)"/><linearGradient id="b" gradientUnits="userSpaceOnUse" x1="-42.703" y1="558.515" x2="-42.703" y2="620.464" gradientTransform="matrix(8 0 0 -8 586.796 4941)"><stop offset="0" stop-color="#006df0"/><stop offset="1" stop-color="#00e7f0"/></linearGradient><path d="M221.172 272h48a8 8 0 000-16h-48a8 8 0 000 16z" fill="url(#b)"/><linearGradient id="c" gradientUnits="userSpaceOnUse" x1="-39.703" y1="558.515" x2="-39.703" y2="620.464" gradientTransform="matrix(8 0 0 -8 586.796 4941)"><stop offset="0" stop-color="#006df0"/><stop offset="1" stop-color="#00e7f0"/></linearGradient><path d="M317.172 304h-96a8 8 0 000 16h96a8 8 0 000-16z" fill="url(#c)"/></svg>