<svg xmlns="http://www.w3.org/2000/svg" height="557" style="width:1050px;height:557px" viewBox="0 0 1050 557" width="1050"><defs><filter height="300%" id="a" width="300%" x="-1" y="-1"><feGaussianBlur result="blurOut" stdDeviation="2"/><feColorMatrix in="blurOut" result="blurOut2" values="0 0 0 0 0 0 0 0 0 0 0 0 0 0 0 0 0 0 .4 0"/><feOffset dx="4" dy="4" in="blurOut2" result="blurOut3"/><feBlend in="SourceGraphic" in2="blurOut3"/></filter></defs><ellipse cx="393" cy="18" filter="url(#a)" rx="10" ry="10"/><rect fill="#FEFECE" filter="url(#a)" height="34.133" rx="12.5" ry="12.5" width="227" x="279.5" y="69" stroke="#a80036" stroke-width="1.5"/><text font-family="sans-serif" font-size="12" lengthAdjust="spacingAndGlyphs" textLength="207" x="289.5" y="90.602">Agent: Hi I am your personal trainer</text><path fill="#FEFECE" filter="url(#a)" stroke="#a80036" stroke-width="1.5" d="M393 144l12 12-12 12-12-12 12-12z"/><rect fill="#FEFECE" filter="url(#a)" height="34.133" rx="12.5" ry="12.5" width="160" x="313" y="209" stroke="#a80036" stroke-width="1.5"/><text font-family="sans-serif" font-size="12" lengthAdjust="spacingAndGlyphs" textLength="140" x="323" y="230.602">Fullfilment: manage_bmi</text><path fill="#FEFECE" filter="url(#a)" stroke="#a80036" stroke-width="1.5" d="M393 289l12 12-12 12-12-12 12-12z"/><rect fill="#FEFECE" filter="url(#a)" height="34.133" rx="12.5" ry="12.5" width="591" x="448.5" y="284" stroke="#a80036" stroke-width="1.5"/><text font-family="sans-serif" font-size="12" lengthAdjust="spacingAndGlyphs" textLength="571" x="458.5" y="305.602">responed: Your last BMI on 30.12.2018 was 25, please give me your weight and hight to update it</text><rect fill="#FEFECE" filter="url(#a)" height="34.133" rx="12.5" ry="12.5" width="353" x="216.5" y="372" stroke="#a80036" stroke-width="1.5"/><text font-family="sans-serif" font-size="12" lengthAdjust="spacingAndGlyphs" textLength="333" x="226.5" y="393.602">responed: Plase give me your height, weight and birthday</text><path fill="#FEFECE" filter="url(#a)" stroke="#a80036" stroke-width="1.5" d="M393 447l12 12-12 12-12-12 12-12z"/><rect fill="#FEFECE" filter="url(#a)" height="34.133" rx="12.5" ry="12.5" width="155" x="315.5" y="512" stroke="#a80036" stroke-width="1.5"/><text font-family="sans-serif" font-size="12" lengthAdjust="spacingAndGlyphs" textLength="135" x="325.5" y="533.602">Fullfilment: update_bmi</text><path d="M393 28.034V63.79" fill="none" stroke="#a80036"/><path fill="#A80036" stroke="#a80036" d="M393 68.8l4-9-4 4-4-4 4 9z"/><path d="M393 103.303v35.608" fill="none" stroke="#a80036"/><path fill="#A80036" stroke="#a80036" d="M393 143.942l4-9-4 4-4-4 4 9z"/><text font-family="sans-serif" font-size="11" lengthAdjust="spacingAndGlyphs" textLength="116" x="257.063" y="136.533">User: What is my bmi?</text><path d="M393 168.193v35.545" fill="none" stroke="#a80036"/><path fill="#A80036" stroke="#a80036" d="M393 208.966l4-9-4 4-4-4 4 9z"/><path d="M393 243.019v40.636" fill="none" stroke="#a80036"/><path fill="#A80036" stroke="#a80036" d="M393 288.953l4-9-4 4-4-4 4 9z"/><text font-family="sans-serif" font-size="11" lengthAdjust="spacingAndGlyphs" textLength="70" x="305.063" y="278.583">profile exists</text><path d="M405.082 301h38.082" fill="none" stroke="#a80036"/><path fill="#A80036" stroke="#a80036" d="M448.26 301l-9-4 4 4-4 4 9-4z"/><text font-family="sans-serif" font-size="11" lengthAdjust="spacingAndGlyphs" textLength="22" x="415.75" y="295.635">true</text><path d="M393 313.236v53.426" fill="none" stroke="#a80036"/><path fill="#A80036" stroke="#a80036" d="M393 371.726l4-9-4 4-4-4 4 9z"/><text font-family="sans-serif" font-size="11" lengthAdjust="spacingAndGlyphs" textLength="25" x="394" y="349.635">false</text><path d="M393 406.303v35.608" fill="none" stroke="#a80036"/><path fill="#A80036" stroke="#a80036" d="M393 446.942l4-9-4 4-4-4 4 9z"/><text font-family="sans-serif" font-size="11" lengthAdjust="spacingAndGlyphs" textLength="372" x=".656" y="443.654">User: My hight is 177 cm, I weigh 80kg and my birthday is 19.12.1987</text><path d="M393 471.193v35.545" fill="none" stroke="#a80036"/><path fill="#A80036" stroke="#a80036" d="M393 511.966l4-9-4 4-4-4 4 9z"/></svg>